<svg width="176" height="12" viewBox="0 0 176 12" fill="none" xmlns="http://www.w3.org/2000/svg">
<path opacity="0.9" d="M3.62609 3.66797C4.99719 3.66797 5.69641 4.40234 5.69641 5.48047C5.69641 6.35938 5.07531 6.84766 4.75891 6.98828L5.80969 9H4.11047L3.24328 7.1875H2.74328V9H1.23156V3.66797H3.62609ZM2.74328 6.14453H3.38781C3.78625 6.14453 4.10656 5.92969 4.10656 5.47656C4.10656 5.01562 3.76672 4.78516 3.39172 4.78516H2.74328V6.14453ZM7.38594 9H5.85859L7.50313 3.66797H9.44063L11.0734 9H9.425L9.16328 7.93359H7.65547L7.38594 9ZM8.45625 4.96875H8.38203L7.91719 6.83984H8.90938L8.45625 4.96875ZM13.013 9H11.47V3.66797H15.1927V4.88281H13.013V5.94141H14.9895V7.11328H13.013V9ZM17.0033 9L15.4017 3.66797H17.2025L18.0228 7.40234H18.0931L18.89 3.66797H20.5814L19.0111 9H17.0033ZM24.7123 7.80469V9H20.9741V3.66797H24.7123V4.86328H22.5014V5.78906H24.5678V6.875H22.5014V7.80469H24.7123ZM27.8433 3.66797C29.2144 3.66797 29.9136 4.40234 29.9136 5.48047C29.9136 6.35938 29.2925 6.84766 28.9761 6.98828L30.0269 9H28.3277L27.4605 7.1875H26.9605V9H25.4488V3.66797H27.8433ZM26.9605 6.14453H27.605C28.0034 6.14453 28.3238 5.92969 28.3238 5.47656C28.3238 5.01562 27.9839 4.78516 27.6089 4.78516H26.9605V6.14453ZM35.3922 3.66797L33.6031 5.99609L35.4469 9H33.6539L32.4781 7.00781L32.0758 7.5V9H30.5328V3.66797H32.0758V5.80859H32.1461L33.775 3.66797H35.3922ZM38.2458 9H36.7028V4.91016H35.32V3.66797H39.6286V4.91016H38.2458V9ZM40.7009 9H39.1736L40.8181 3.66797H42.7556L44.3884 9H42.74L42.4783 7.93359H40.9705L40.7009 9ZM41.7713 4.96875H41.697L41.2322 6.83984H42.2244L41.7713 4.96875ZM49.6444 3.66797L47.8553 5.99609L49.6991 9H47.9061L46.7303 7.00781L46.328 7.5V9H44.785V3.66797H46.328V5.80859H46.3983L48.0272 3.66797H49.6444ZM51.2206 9H49.6933L51.3378 3.66797H53.2753L54.9081 9H53.2597L52.998 7.93359H51.4902L51.2206 9ZM52.2909 4.96875H52.2167L51.7519 6.83984H52.7441L52.2909 4.96875ZM57.6992 3.66797C59.0703 3.66797 59.7695 4.40234 59.7695 5.48047C59.7695 6.35938 59.1484 6.84766 58.832 6.98828L59.8828 9H58.1836L57.3164 7.1875H56.8164V9H55.3047V3.66797H57.6992ZM56.8164 6.14453H57.4609C57.8594 6.14453 58.1797 5.92969 58.1797 5.47656C58.1797 5.01562 57.8398 4.78516 57.4648 4.78516H56.8164V6.14453Z" fill="black"/>
<path opacity="0.9" d="M71.3861 9.09375C69.9369 9.09375 69.0892 8.44141 69.0892 7.51953C69.0892 6.66016 69.7259 6.29688 70.2611 6.21094V6.15625C69.6947 5.99219 69.3041 5.64062 69.3041 4.97266C69.3041 4.17578 70.0814 3.57812 71.39 3.57812C72.6986 3.57812 73.4759 4.17578 73.4759 4.97266C73.4759 5.64453 73.0814 5.99219 72.515 6.15625V6.21094C73.0541 6.29688 73.6908 6.66406 73.6908 7.51953C73.6908 8.44141 72.8392 9.09375 71.3861 9.09375ZM71.39 5.76953C71.7416 5.76953 72.0111 5.52734 72.0111 5.18359C72.0111 4.83594 71.7416 4.59766 71.39 4.59766C71.0384 4.59766 70.7689 4.83594 70.7689 5.18359C70.7689 5.52734 71.0384 5.76953 71.39 5.76953ZM71.39 8.07812C71.8119 8.07812 72.1478 7.80469 72.1478 7.39062C72.1478 6.97266 71.8119 6.69531 71.39 6.69531C70.9642 6.69531 70.6322 6.97266 70.6322 7.39062C70.6322 7.80469 70.9642 8.07812 71.39 8.07812ZM75.4702 5.41406H74.0366V5.32422C74.0366 4.32422 74.9038 3.57812 76.1069 3.57812C77.2905 3.57812 78.0834 4.19922 78.0834 5.11719C78.0834 5.70312 77.8413 6.10547 77.1108 6.82812L76.2084 7.74609V7.80078H78.1694V9H74.1459V8.05469L76.0014 6.21484C76.4116 5.81641 76.5756 5.56641 76.5756 5.28125C76.5756 4.97266 76.3491 4.75781 76.0288 4.75781C75.7084 4.75781 75.4702 5 75.4702 5.30859V5.41406ZM80.2808 3.66797H82.4605V6.98828H83.0542V8.16797H82.4605V9H81.0269V8.16797H78.4683V6.96875C79.0308 5.84375 79.6636 4.74609 80.2808 3.66797ZM79.773 6.98828H81.0269V4.73047H80.9605C80.5425 5.46094 80.1402 6.17188 79.773 6.97266V6.98828ZM86.2848 5.41406H84.8513V5.32422C84.8513 4.32422 85.7184 3.57812 86.9216 3.57812C88.1052 3.57812 88.8981 4.19922 88.8981 5.11719C88.8981 5.70312 88.6559 6.10547 87.9255 6.82812L87.0231 7.74609V7.80078H88.9841V9H84.9606V8.05469L86.8161 6.21484C87.2263 5.81641 87.3903 5.56641 87.3903 5.28125C87.3903 4.97266 87.1638 4.75781 86.8434 4.75781C86.5231 4.75781 86.2848 5 86.2848 5.30859V5.41406ZM91.0955 3.66797H93.2752V6.98828H93.8689V8.16797H93.2752V9H91.8416V8.16797H89.283V6.96875C89.8455 5.84375 90.4783 4.74609 91.0955 3.66797ZM90.5877 6.98828H91.8416V4.73047H91.7752C91.3572 5.46094 90.9548 6.17188 90.5877 6.97266V6.98828ZM98.3709 5.10547H96.9764C96.9373 4.87109 96.6913 4.72656 96.41 4.72656C95.7303 4.72656 95.5584 5.57812 95.6131 6.21094H95.6913C95.8202 5.90625 96.1131 5.46875 96.8553 5.46875C97.7264 5.46875 98.4803 6.07422 98.4803 7.1875C98.4803 8.41797 97.5584 9.08984 96.4178 9.08984C95.7147 9.08984 95.1561 8.83203 94.7733 8.36328C94.3944 7.89062 94.1873 7.20703 94.1873 6.35156C94.1873 4.63281 95.0038 3.58203 96.4334 3.58203C97.7264 3.58203 98.3475 4.43359 98.3709 5.10547ZM95.7772 7.23828C95.7772 7.64453 96.0311 7.94141 96.41 7.94141C96.785 7.94141 97.0389 7.65234 97.0389 7.23438C97.0389 6.82812 96.7889 6.52734 96.41 6.52734C96.0233 6.52734 95.7772 6.83594 95.7772 7.23828ZM101.631 9H100.1V5.03125H100.029C99.6503 5.29297 99.2363 5.56641 98.8456 5.83594V4.51562C99.2636 4.23047 99.6894 3.94531 100.107 3.66797H101.631V9Z" fill="black"/>
<path opacity="0.9" d="M112.624 9H111.081V3.66797H112.624V9ZM113.239 7.38672H114.692C114.704 7.66406 114.985 7.94922 115.528 7.94922C116.052 7.94922 116.255 7.73438 116.255 7.48047C116.255 7.1875 115.989 7.07812 115.497 6.98438L114.821 6.85938C113.97 6.70312 113.333 6.26562 113.333 5.29297C113.333 4.19922 114.22 3.57812 115.513 3.57812C116.958 3.57812 117.657 4.39453 117.661 5.25H116.259C116.247 4.99609 116.013 4.70312 115.513 4.70312C115.071 4.70312 114.864 4.90625 114.864 5.16797C114.864 5.41406 115.126 5.54688 115.567 5.62109L116.274 5.73828C117.02 5.85938 117.767 6.23828 117.767 7.31641C117.767 8.35547 117.005 9.09375 115.489 9.09375C113.774 9.09375 113.247 8.19531 113.239 7.38672ZM119.46 9H117.933L119.577 3.66797H121.515L123.148 9H121.499L121.237 7.93359H119.73L119.46 9ZM120.53 4.96875H120.456L119.991 6.83984H120.983L120.53 4.96875ZM128.403 3.66797L126.614 5.99609L128.458 9H126.665L125.489 7.00781L125.087 7.5V9H123.544V3.66797H125.087V5.80859H125.157L126.786 3.66797H128.403ZM133.405 8.48047C133.007 8.48047 132.491 8.31641 132.363 7.88672H132.327C132.202 8.3125 131.8 8.47656 131.394 8.47656C130.691 8.47656 130.222 8.00781 130.222 7.19141V6.66797C130.222 5.91406 130.675 5.42578 131.378 5.42578C131.937 5.42578 132.191 5.73438 132.265 6.01562H132.292V5.48047H133.214V7.46094C133.214 7.67188 133.351 7.79297 133.534 7.79297C133.769 7.79297 134.03 7.44141 134.03 6.58984V6.50391C134.03 5.35547 133.171 4.45703 131.847 4.45703H131.812C130.378 4.45703 129.48 5.40625 129.48 6.84766V6.96875C129.48 8.63672 130.589 9.29688 131.726 9.29688H131.769C132.163 9.29688 132.538 9.23828 132.73 9.15234V9.875C132.546 9.95703 132.187 10.0156 131.698 10.0156H131.655C129.905 10.0156 128.636 8.92969 128.636 6.99219V6.82031C128.636 4.96094 129.905 3.72266 131.812 3.72266H131.843C133.757 3.72266 134.855 5.00391 134.855 6.46875V6.65234C134.855 7.67969 134.366 8.48047 133.405 8.48047ZM131.238 7.03906C131.238 7.51953 131.413 7.6875 131.702 7.6875C131.941 7.6875 132.152 7.57422 132.152 7.09766V6.75781C132.152 6.32422 131.921 6.19922 131.695 6.19922C131.409 6.19922 131.238 6.39453 131.238 6.85156V7.03906ZM136.626 9H135.099L136.743 3.66797H138.681L140.314 9H138.665L138.404 7.93359H136.896L136.626 9ZM137.697 4.96875H137.622L137.158 6.83984H138.15L137.697 4.96875ZM144.261 7.73047V9H140.71V3.66797H142.253V7.73047H144.261ZM148.353 7.73047V9H144.802V3.66797H146.345V7.73047H148.353ZM150.882 9H149.339V4.91016H147.957V3.66797H152.265V4.91016H150.882V9ZM155.084 3.66797C156.455 3.66797 157.154 4.40234 157.154 5.48047C157.154 6.35938 156.533 6.84766 156.216 6.98828L157.267 9H155.568L154.701 7.1875H154.201V9H152.689V3.66797H155.084ZM154.201 6.14453H154.845C155.244 6.14453 155.564 5.92969 155.564 5.47656C155.564 5.01562 155.224 4.78516 154.849 4.78516H154.201V6.14453ZM158.843 9H157.316L158.961 3.66797H160.898L162.531 9H160.883L160.621 7.93359H159.113L158.843 9ZM159.914 4.96875H159.84L159.375 6.83984H160.367L159.914 4.96875ZM164.47 9H162.928V3.66797H166.65V4.88281H164.47V5.94141H166.447V7.11328H164.47V9ZM166.711 8.28906C166.711 7.84375 167.074 7.48047 167.519 7.48047C167.961 7.48047 168.324 7.84375 168.324 8.28906C168.324 8.73047 167.961 9.09375 167.519 9.09375C167.074 9.09375 166.711 8.73047 166.711 8.28906ZM170.623 9H169.08V3.66797H170.623V9ZM171.238 7.38672H172.691C172.703 7.66406 172.984 7.94922 173.527 7.94922C174.051 7.94922 174.254 7.73438 174.254 7.48047C174.254 7.1875 173.988 7.07812 173.496 6.98438L172.82 6.85938C171.969 6.70312 171.332 6.26562 171.332 5.29297C171.332 4.19922 172.219 3.57812 173.512 3.57812C174.957 3.57812 175.656 4.39453 175.66 5.25H174.258C174.246 4.99609 174.012 4.70312 173.512 4.70312C173.07 4.70312 172.863 4.90625 172.863 5.16797C172.863 5.41406 173.125 5.54688 173.566 5.62109L174.273 5.73828C175.02 5.85938 175.766 6.23828 175.766 7.31641C175.766 8.35547 175.004 9.09375 173.488 9.09375C171.773 9.09375 171.246 8.19531 171.238 7.38672Z" fill="black"/>
</svg>
